<?xml version="1.0" standalone="no"?>
<!DOCTYPE svg PUBLIC "-//W3C//DTD SVG 20010904//EN"
 "http://www.w3.org/TR/2001/REC-SVG-20010904/DTD/svg10.dtd">
<svg version="1.0" xmlns="http://www.w3.org/2000/svg"
 width="842.000000pt" height="595.000000pt" viewBox="0 0 842.000000 595.000000"
 preserveAspectRatio="xMidYMid meet">
<metadata>
Created by potrace 1.16, written by Peter Selinger 2001-2019
</metadata>
<g transform="translate(0.000000,595.000000) scale(0.100000,-0.100000)"
fill="#000000" stroke="none">
<path d="M2115 4643 c-161 -21 -257 -95 -310 -238 -18 -45 -20 -89 -23 -482
l-3 -431 -175 -171 c-126 -124 -174 -177 -174 -194 0 -17 48 -71 175 -197
l175 -174 0 -452 c0 -261 4 -474 10 -504 23 -120 84 -211 174 -257 81 -41 162
-53 379 -53 l197 0 0 179 0 179 -132 4 c-120 3 -136 5 -166 26 -63 45 -62 40
-62 489 0 244 -5 426 -11 453 -14 62 -42 94 -174 206 -63 54 -115 98 -115 99
0 2 42 37 93 78 139 113 182 163 196 226 7 33 11 183 11 407 0 382 1 393 52
426 52 34 205 45 291 22 16 -5 17 8 17 180 l0 186 -197 -1 c-109 -1 -211 -4
-228 -6z"/>
<path d="M5820 4468 l0 -183 108 3 c128 4 177 -7 217 -48 l30 -31 5 -397 c5
-376 6 -399 26 -437 13 -26 62 -74 141 -140 67 -55 122 -104 122 -110 0 -5
-39 -41 -86 -80 -140 -114 -180 -159 -192 -216 -7 -31 -11 -208 -11 -462 0
-396 -1 -413 -20 -445 -34 -55 -86 -72 -222 -72 l-118 0 0 -180 0 -180 188 0
c104 0 215 5 248 10 162 29 244 95 296 241 22 63 23 74 26 543 l4 479 169 165
c150 146 169 168 169 197 0 28 -19 51 -169 198 l-169 166 -4 423 c-5 465 -7
481 -69 580 -79 124 -187 158 -500 158 l-189 0 0 -182z"/>
<path d="M5648 4053 l-77 -4 -182 -317 c-100 -174 -247 -431 -327 -569 -79
-139 -147 -253 -151 -253 -3 0 -28 40 -55 88 -28 48 -75 130 -106 182 -31 52
-77 131 -103 175 -26 44 -127 217 -226 385 l-179 305 -222 3 c-204 2 -222 1
-216 -14 4 -9 37 -69 75 -133 156 -265 313 -531 571 -971 150 -256 315 -538
368 -628 75 -128 98 -160 107 -150 7 7 103 173 215 368 111 195 353 617 536
937 184 320 334 587 334 593 0 10 -173 11 -362 3z"/>
<path d="M3448 3823 c-80 -126 -291 -453 -469 -728 -177 -275 -348 -540 -379
-590 -32 -49 -98 -153 -149 -230 l-91 -140 43 -7 c23 -3 130 -7 237 -8 l195
-2 27 38 c28 41 89 135 303 469 70 110 156 243 190 295 34 52 99 153 144 223
l83 128 33 -53 c39 -64 255 -429 282 -478 21 -37 90 -154 183 -310 31 -52 89
-150 128 -216 l72 -122 148 -6 c81 -3 189 -8 240 -11 50 -2 92 -1 92 4 0 4
-93 165 -206 357 -114 192 -245 414 -292 494 -47 80 -126 215 -177 300 -50 85
-131 223 -180 305 -48 83 -132 225 -186 316 -54 91 -101 173 -105 182 -3 9 -9
17 -13 17 -3 0 -72 -102 -153 -227z"/>
</g>
</svg>
